<svg width="174" height="112" viewBox="0 0 174 112" fill="none" xmlns="http://www.w3.org/2000/svg">
<g opacity="0.6" filter="url(#filter0_f_220_5102)">
<path d="M78.9909 107.447L63.5269 99.6669C63.1181 99.4613 62.8059 99.1042 62.6566 98.6717L54.7422 75.7454L65.852 64.0693L82.1465 80.2172L128.314 34.0093L137.683 35.9987C139.816 36.4516 141.842 34.8709 141.921 32.6919L142.387 19.8489L168.586 45.6948C172.832 49.8835 169.866 57.1132 163.901 57.1132H126.339L108.563 74.7517L101.617 98.6123C101.481 99.0804 101.156 99.4706 100.721 99.6897L85.3021 107.447C83.3169 108.446 80.9761 108.446 78.9909 107.447Z" fill="#D7434C"/>
<rect width="13.9353" height="13.9353" rx="6.96766" transform="matrix(0.707107 0.707106 -0.707107 0.707106 82.6113 47.7195)" fill="#3EB959"/>
<path d="M80.9882 36.2581L49.4543 67.2289L38.2961 55.945H27.3404C25.6148 55.945 23.9156 55.521 22.3923 54.7102L6.31506 46.1535C2.71751 44.2388 2.05477 39.3614 5.01095 36.5561L22.5292 19.9324L21.2934 30.4159C21.0474 32.5031 22.6781 34.3374 24.7799 34.3374H50.6671L43.8752 41.0598L49.4543 46.5817L80.9882 15.3708L96.7552 30.9762L113.007 14.8906L108.156 10.0889L135.566 3.12646L128.047 30.9762L122.953 25.9345L96.7552 51.8636L80.9882 36.2581Z" fill="#3EB959"/>
</g>
<path d="M78.9909 107.447L63.5269 99.6669C63.1181 99.4613 62.8059 99.1042 62.6566 98.6717L54.7422 75.7454L65.852 64.0693L82.1465 80.2172L128.314 34.0093L137.683 35.9987C139.816 36.4516 141.842 34.8709 141.921 32.6919L142.387 19.8489L168.586 45.6948C172.832 49.8835 169.866 57.1132 163.901 57.1132H126.339L108.563 74.7517L101.617 98.6123C101.481 99.0804 101.156 99.4706 100.721 99.6897L85.3021 107.447C83.3169 108.446 80.9761 108.446 78.9909 107.447Z" fill="#D7434C"/>
<rect width="13.9353" height="13.9353" rx="6.96766" transform="matrix(0.707107 0.707106 -0.707107 0.707106 82.6113 47.7195)" fill="#3EB959"/>
<path d="M80.9882 36.2581L49.4543 67.2289L38.2961 55.945H27.3404C25.6148 55.945 23.9156 55.521 22.3923 54.7102L6.31506 46.1535C2.71751 44.2388 2.05477 39.3614 5.01095 36.5561L22.5292 19.9324L21.2934 30.4159C21.0474 32.5031 22.6781 34.3374 24.7799 34.3374H50.6671L43.8752 41.0598L49.4543 46.5817L80.9882 15.3708L96.7552 30.9762L113.007 14.8906L108.156 10.0889L135.566 3.12646L128.047 30.9762L122.953 25.9345L96.7552 51.8636L80.9882 36.2581Z" fill="#3EB959"/>
<defs>
<filter id="filter0_f_220_5102" x="0.150077" y="0.126151" width="173.434" height="111.07" filterUnits="userSpaceOnUse" color-interpolation-filters="sRGB">
<feFlood flood-opacity="0" result="BackgroundImageFix"/>
<feBlend mode="normal" in="SourceGraphic" in2="BackgroundImageFix" result="shape"/>
<feGaussianBlur stdDeviation="1.50016" result="effect1_foregroundBlur_220_5102"/>
</filter>
</defs>
</svg>
